<?xml version="1.0" encoding="UTF-8"?>
<!-- 2018-02-06 18:38:23 Generated by QCAD SVG Exporter -->
<svg width="141.8144mm" height="50.6832mm" viewBox="-0.3144 -30 141.8144 50.6832" version="1.1" xmlns="http://www.w3.org/2000/svg" style="stroke-linecap:round;stroke-linejoin:round;fill:none">
    <g transform="scale(1,-1)">
        <!-- Line -->
        <path d="M0,0 L118,0 " style="stroke:#ff0000;stroke-width:0.25;"/>
        <!-- Line -->
        <path d="M120,2 L120,28 " style="stroke:#ff0000;stroke-width:0.25;"/>
        <!-- Line -->
        <path d="M118,30 L2,30 " style="stroke:#ff0000;stroke-width:0.25;"/>
        <!-- Line -->
        <path d="M0,28 L0,0 " style="stroke:#ff0000;stroke-width:0.25;"/>
        <!-- Line -->
        <path d="M10,3 L25,3 " style="stroke:#ff0000;stroke-width:0.25;"/>
        <!-- Line -->
        <path d="M25,3 L25,6 " style="stroke:#ff0000;stroke-width:0.25;"/>
        <!-- Line -->
        <path d="M25,6 L10,6 " style="stroke:#ff0000;stroke-width:0.25;"/>
        <!-- Line -->
        <path d="M10,6 L10,3 " style="stroke:#ff0000;stroke-width:0.25;"/>
        <!-- Line -->
        <path d="M95,3 L110,3 " style="stroke:#ff0000;stroke-width:0.25;"/>
        <!-- Line -->
        <path d="M110,3 L110,6 " style="stroke:#ff0000;stroke-width:0.25;"/>
        <!-- Line -->
        <path d="M110,6 L95,6 " style="stroke:#ff0000;stroke-width:0.25;"/>
        <!-- Line -->
        <path d="M95,6 L95,3 " style="stroke:#ff0000;stroke-width:0.25;"/>
        <!-- Line -->
        <path d="M52.5,3 L67.5,3 " style="stroke:#ff0000;stroke-width:0.25;"/>
        <!-- Line -->
        <path d="M67.5,3 L67.5,6 " style="stroke:#ff0000;stroke-width:0.25;"/>
        <!-- Line -->
        <path d="M67.5,6 L52.5,6 " style="stroke:#ff0000;stroke-width:0.25;"/>
        <!-- Line -->
        <path d="M52.5,6 L52.5,3 " style="stroke:#ff0000;stroke-width:0.25;"/>
        <!-- Arc -->
        <path d="M2,30 A2,2 0 0,1 0,28 " style="stroke:#ff0000;stroke-width:0.25;"/>
        <!-- Arc -->
        <path d="M118,30 A2,2 0 0,0 120,28 " style="stroke:#ff0000;stroke-width:0.25;"/>
        <!-- Text: Push Stick
 -->
        <g>
            <path d="M83.1989,5.7929 L83.1989,5.2546 L84.0201,5.2546 C84.1376,5.2546 84.2266,5.2269 84.2873,5.1715 C84.348,5.1161 84.3783,5.0462 84.3783,4.9617 C84.3783,4.8733 84.3483,4.8021 84.2883,4.748 C84.2283,4.6939 84.1402,4.6669 84.0241,4.6669 L81.788,4.6669 C81.6587,4.6669 81.5663,4.6966 81.5109,4.7559 C81.4555,4.8153 81.4278,4.9096 81.4278,5.0389 L81.4278,5.7929 C81.4278,6.0158 81.4449,6.1873 81.4792,6.3074 C81.5122,6.4261 81.567,6.5287 81.6435,6.6151 C81.72,6.7015 81.8137,6.7671 81.9245,6.812 C82.0353,6.8569 82.16,6.8793 82.2985,6.8793 C82.594,6.8793 82.818,6.7883 82.9703,6.6062 C83.1227,6.4241 83.1989,6.153 83.1989,5.7929 M81.8691,5.6504 L81.8691,5.2546 L82.7556,5.2546 L82.7556,5.6504 C82.7556,5.7889 82.7411,5.9047 82.7121,5.9977 C82.6831,6.0907 82.6356,6.1616 82.5696,6.2104 C82.5037,6.2592 82.4172,6.2836 82.3104,6.2836 C82.1824,6.2836 82.0782,6.246 81.9977,6.1708 C81.912,6.0864 81.8691,5.9129 81.8691,5.6504 M84.0736,8.735 L84.0043,8.735 C84.0861,8.6704 84.1547,8.6024 84.2101,8.5312 C84.2655,8.4599 84.3068,8.3821 84.3338,8.2977 C84.3608,8.2132 84.3744,8.1169 84.3744,8.0088 C84.3744,7.8782 84.3473,7.7611 84.2932,7.6575 C84.2391,7.5539 84.1646,7.4738 84.0696,7.4171 C83.9548,7.3498 83.7899,7.3161 83.5749,7.3161 L82.5043,7.3161 C82.3961,7.3161 82.3153,7.3406 82.2619,7.3894 C82.2085,7.4382 82.1818,7.5028 82.1818,7.5833 C82.1818,7.6651 82.2088,7.7311 82.2629,7.7812 C82.317,7.8313 82.3975,7.8564 82.5043,7.8564 L83.3691,7.8564 C83.4944,7.8564 83.5996,7.8669 83.6847,7.888 C83.7698,7.9092 83.8364,7.9471 83.8846,8.0018 C83.9327,8.0566 83.9568,8.1308 83.9568,8.2245 C83.9568,8.3155 83.9298,8.4012 83.8757,8.4817 C83.8216,8.5622 83.751,8.6209 83.6639,8.6578 C83.5874,8.6882 83.4199,8.7033 83.1613,8.7033 L82.5043,8.7033 C82.3975,8.7033 82.317,8.7284 82.2629,8.7785 C82.2088,8.8287 82.1818,8.894 82.1818,8.9745 C82.1818,9.0549 82.2085,9.1196 82.2619,9.1684 C82.3153,9.2172 82.3961,9.2416 82.5043,9.2416 L84.0696,9.2416 C84.1725,9.2416 84.2497,9.2182 84.3011,9.1714 C84.3526,9.1245 84.3783,9.0642 84.3783,8.9903 C84.3783,8.9164 84.3516,8.8554 84.2982,8.8072 C84.2447,8.7591 84.1699,8.735 84.0736,8.735 M83.6719,11.5189 C83.8209,11.5189 83.9486,11.4826 84.0548,11.4101 C84.161,11.3375 84.2415,11.2303 84.2962,11.0885 C84.3509,10.9467 84.3783,10.7742 84.3783,10.571 C84.3783,10.3771 84.3486,10.2109 84.2893,10.0723 C84.2299,9.9338 84.1557,9.8316 84.0666,9.7656 C83.9776,9.6997 83.8882,9.6667 83.7985,9.6667 C83.7391,9.6667 83.6884,9.6878 83.6461,9.73 C83.6039,9.7722 83.5828,9.8256 83.5828,9.8903 C83.5828,9.947 83.5967,9.9906 83.6244,10.0209 C83.6521,10.0512 83.691,10.0803 83.7411,10.108 C83.8374,10.1634 83.9093,10.2297 83.9568,10.3068 C84.0043,10.384 84.0281,10.4892 84.0281,10.6225 C84.0281,10.7307 84.004,10.8194 83.9558,10.8886 C83.9077,10.9579 83.8526,10.9925 83.7906,10.9925 C83.6956,10.9925 83.6263,10.9566 83.5828,10.8847 C83.5393,10.8128 83.4977,10.6944 83.4581,10.5295 C83.412,10.3435 83.3635,10.1921 83.3127,10.0753 C83.2619,9.9586 83.1949,9.8652 83.1118,9.7953 C83.0287,9.7254 82.9265,9.6904 82.8051,9.6904 C82.6969,9.6904 82.5947,9.7227 82.4984,9.7874 C82.4021,9.852 82.3252,9.9473 82.2678,10.0733 C82.2104,10.1993 82.1818,10.3514 82.1818,10.5295 C82.1818,10.6693 82.1963,10.795 82.2253,10.9064 C82.2543,11.0179 82.2932,11.1109 82.342,11.1855 C82.3909,11.26 82.4449,11.3167 82.5043,11.3557 C82.5637,11.3946 82.6217,11.414 82.6785,11.414 C82.7405,11.414 82.7913,11.3933 82.8308,11.3517 C82.8704,11.3101 82.8902,11.2511 82.8902,11.1746 C82.8902,11.1192 82.8744,11.072 82.8427,11.0331 C82.811,10.9942 82.7635,10.9497 82.7002,10.8995 C82.6475,10.8586 82.6052,10.8105 82.5736,10.7551 C82.5419,10.6997 82.5261,10.6245 82.5261,10.5295 C82.5261,10.4318 82.5469,10.3507 82.5884,10.2861 C82.63,10.2214 82.6818,10.1891 82.7438,10.1891 C82.8005,10.1891 82.847,10.2128 82.8833,10.2603 C82.9196,10.3078 82.9496,10.3718 82.9733,10.4523 C82.9971,10.5328 83.0261,10.6436 83.0604,10.7847 C83.1013,10.9523 83.1501,11.0892 83.2068,11.1954 C83.2635,11.3016 83.3305,11.382 83.4077,11.4368 C83.4849,11.4915 83.5729,11.5189 83.6719,11.5189 M81.7068,12.5039 L82.5083,12.5039 C82.4291,12.5725 82.3665,12.6395 82.3203,12.7048 C82.2741,12.7701 82.2395,12.8423 82.2164,12.9215 C82.1933,13.0006 82.1818,13.0857 82.1818,13.1768 C82.1818,13.314 82.2108,13.4357 82.2688,13.5419 C82.3269,13.6481 82.4113,13.7315 82.5221,13.7922 C82.5868,13.8304 82.659,13.8562 82.7388,13.8694 C82.8186,13.8826 82.9106,13.8892 83.0149,13.8892 L84.0498,13.8892 C84.158,13.8892 84.2398,13.8644 84.2952,13.8149 C84.3506,13.7655 84.3783,13.6998 84.3783,13.618 C84.3783,13.4399 84.2688,13.3509 84.0498,13.3509 L83.1376,13.3509 C82.9647,13.3509 82.8318,13.3252 82.7388,13.2737 C82.6458,13.2223 82.5993,13.1246 82.5993,12.9808 C82.5993,12.8845 82.6267,12.7978 82.6814,12.7206 C82.7362,12.6434 82.811,12.5857 82.906,12.5475 C82.9865,12.5184 83.1296,12.5039 83.3354,12.5039 L84.0498,12.5039 C84.1567,12.5039 84.2382,12.4799 84.2942,12.4317 C84.3503,12.3835 84.3783,12.3166 84.3783,12.2308 C84.3783,12.0527 84.2688,11.9637 84.0498,11.9637 L81.7068,11.9637 C81.5973,11.9637 81.5152,11.9871 81.4604,12.0339 C81.4057,12.0808 81.3783,12.1464 81.3783,12.2308 C81.3783,12.3166 81.406,12.3835 81.4614,12.4317 C81.5168,12.4799 81.5986,12.5039 81.7068,12.5039 M83.4581,17.6783 C83.6336,17.6783 83.7913,17.6332 83.9311,17.5428 C84.0709,17.4524 84.1804,17.3202 84.2596,17.146 C84.3387,16.9719 84.3783,16.7654 84.3783,16.5266 C84.3783,16.2403 84.3242,16.0042 84.2161,15.8182 C84.1382,15.6863 84.0343,15.5791 83.9044,15.4966 C83.7744,15.4142 83.6481,15.3729 83.5254,15.3729 C83.4542,15.3729 83.3932,15.3977 83.3424,15.4471 C83.2916,15.4966 83.2662,15.5596 83.2662,15.6361 C83.2662,15.6981 83.286,15.7506 83.3256,15.7934 C83.3651,15.8363 83.4238,15.8729 83.5017,15.9033 C83.594,15.9402 83.6712,15.9801 83.7332,16.023 C83.7952,16.0659 83.8463,16.1262 83.8866,16.2041 C83.9268,16.2819 83.9469,16.3841 83.9469,16.5108 C83.9469,16.6849 83.9064,16.8264 83.8252,16.9353 C83.7441,17.0441 83.6428,17.0985 83.5215,17.0985 C83.4252,17.0985 83.347,17.0692 83.287,17.0105 C83.2269,16.9518 83.1811,16.8759 83.1494,16.7829 C83.1178,16.6899 83.0841,16.5655 83.0485,16.4099 C82.9997,16.2014 82.9426,16.0269 82.8773,15.8864 C82.812,15.7459 82.723,15.6345 82.6102,15.552 C82.4974,15.4696 82.3572,15.4283 82.1897,15.4283 C82.03,15.4283 81.8882,15.4719 81.7642,15.5589 C81.6402,15.646 81.5449,15.772 81.4783,15.9369 C81.4116,16.1018 81.3783,16.2957 81.3783,16.5187 C81.3783,16.6968 81.4004,16.8508 81.4446,16.9808 C81.4888,17.1107 81.5475,17.2186 81.6207,17.3043 C81.694,17.3901 81.7708,17.4527 81.8513,17.4923 C81.9318,17.5319 82.0103,17.5517 82.0868,17.5517 C82.1567,17.5517 82.2197,17.5269 82.2758,17.4775 C82.3318,17.428 82.3599,17.3663 82.3599,17.2925 C82.3599,17.2252 82.343,17.174 82.3094,17.1391 C82.2758,17.1041 82.2207,17.0662 82.1442,17.0253 C82.0347,16.9725 81.9492,16.9092 81.8879,16.8353 C81.8265,16.7614 81.7959,16.6427 81.7959,16.4791 C81.7959,16.3274 81.8292,16.2051 81.8958,16.112 C81.9624,16.019 82.0426,15.9725 82.1362,15.9725 C82.1943,15.9725 82.2444,15.9884 82.2866,16.02 C82.3289,16.0517 82.3651,16.0952 82.3955,16.1506 C82.4258,16.206 82.4496,16.2621 82.4667,16.3188 C82.4839,16.3756 82.5089,16.4692 82.5419,16.5998 C82.5802,16.7634 82.6224,16.9115 82.6686,17.0441 C82.7147,17.1767 82.7708,17.2895 82.8368,17.3825 C82.9027,17.4755 82.9862,17.5481 83.0871,17.6002 C83.188,17.6523 83.3117,17.6783 83.4581,17.6783 M82.2292,18.1686 L82.2292,18.228 L81.9047,18.228 C81.8176,18.228 81.7494,18.2303 81.6999,18.2349 C81.6504,18.2395 81.6079,18.2524 81.5723,18.2735 C81.5353,18.2946 81.5053,18.325 81.4822,18.3645 C81.4591,18.4041 81.4476,18.4483 81.4476,18.4971 C81.4476,18.5657 81.4733,18.6277 81.5248,18.6831 C81.5591,18.7201 81.6009,18.7435 81.6504,18.7534 C81.6999,18.7633 81.7701,18.7682 81.8612,18.7682 L82.2292,18.7682 L82.2292,18.9661 C82.2292,19.0426 82.2474,19.101 82.2837,19.1413 C82.3199,19.1815 82.3665,19.2016 82.4232,19.2016 C82.4957,19.2016 82.5465,19.1729 82.5756,19.1155 C82.6046,19.0581 82.6191,18.976 82.6191,18.8692 L82.6191,18.7682 L83.6125,18.7682 C83.6969,18.7682 83.7619,18.7712 83.8074,18.7771 C83.8529,18.7831 83.8899,18.7989 83.9182,18.8246 C83.9466,18.8504 83.9608,18.8922 83.9608,18.9503 C83.9608,18.9819 83.9552,19.0248 83.944,19.0789 C83.9327,19.133 83.9271,19.1752 83.9271,19.2056 C83.9271,19.2491 83.9446,19.2883 83.9796,19.3233 C84.0145,19.3583 84.0577,19.3757 84.1092,19.3757 C84.1963,19.3757 84.2629,19.3283 84.3091,19.2333 C84.3552,19.1383 84.3783,19.0017 84.3783,18.8236 C84.3783,18.6548 84.35,18.5268 84.2932,18.4397 C84.2365,18.3527 84.158,18.2956 84.0577,18.2686 C83.9575,18.2415 83.8236,18.228 83.656,18.228 L82.6191,18.228 L82.6191,18.1568 C82.6191,18.0789 82.6006,18.0195 82.5637,17.9787 C82.5267,17.9378 82.4799,17.9173 82.4232,17.9173 C82.3665,17.9173 82.3199,17.9387 82.2837,17.9816 C82.2474,18.0245 82.2292,18.0868 82.2292,18.1686 M82.4885,20.1135 L84.0498,20.1135 C84.158,20.1135 84.2398,20.0878 84.2952,20.0363 C84.3506,19.9849 84.3783,19.9195 84.3783,19.8404 C84.3783,19.7612 84.35,19.6969 84.2932,19.6475 C84.2365,19.598 84.1554,19.5732 84.0498,19.5732 L82.5043,19.5732 C82.3975,19.5732 82.317,19.598 82.2629,19.6475 C82.2088,19.6969 82.1818,19.7612 82.1818,19.8404 C82.1818,19.9195 82.2088,19.9849 82.2629,20.0363 C82.317,20.0878 82.3922,20.1135 82.4885,20.1135 M81.9304,19.8463 C81.9304,19.7711 81.9073,19.7068 81.8612,19.6534 C81.815,19.6 81.7497,19.5732 81.6653,19.5732 C81.5887,19.5732 81.5258,19.6006 81.4763,19.6554 C81.4268,19.7101 81.4021,19.7738 81.4021,19.8463 C81.4021,19.9163 81.4245,19.9783 81.4694,20.0323 C81.5142,20.0864 81.5795,20.1135 81.6653,20.1135 C81.7484,20.1135 81.8134,20.0871 81.8602,20.0343 C81.907,19.9816 81.9304,19.9189 81.9304,19.8463 M83.7095,22.6086 C83.7767,22.6086 83.8486,22.5885 83.9252,22.5483 C84.0017,22.508 84.0746,22.4467 84.1438,22.3642 C84.2131,22.2818 84.2688,22.1779 84.311,22.0526 C84.3533,21.9272 84.3744,21.7861 84.3744,21.6291 C84.3744,21.2953 84.2771,21.0347 84.0825,20.8474 C83.8879,20.6601 83.627,20.5664 83.2998,20.5664 C83.0782,20.5664 82.8823,20.6093 82.7121,20.695 C82.5419,20.7808 82.4103,20.9048 82.3173,21.0671 C82.2243,21.2293 82.1778,21.4233 82.1778,21.6489 C82.1778,21.7887 82.1982,21.917 82.2391,22.0338 C82.28,22.1505 82.3328,22.2495 82.3975,22.3306 C82.4621,22.4117 82.531,22.4737 82.6042,22.5166 C82.6775,22.5595 82.7457,22.5809 82.8091,22.5809 C82.8737,22.5809 82.9285,22.5568 82.9733,22.5087 C83.0182,22.4605 83.0406,22.4022 83.0406,22.3336 C83.0406,22.2887 83.029,22.2514 83.006,22.2218 C82.9829,22.1921 82.9456,22.1588 82.8942,22.1218 C82.7939,22.0559 82.7187,21.9869 82.6686,21.915 C82.6184,21.8431 82.5934,21.7518 82.5934,21.6409 C82.5934,21.4813 82.6557,21.3527 82.7804,21.2551 C82.905,21.1574 83.0756,21.1086 83.2919,21.1086 C83.3935,21.1086 83.4868,21.1212 83.5719,21.1462 C83.657,21.1713 83.7296,21.2076 83.7896,21.2551 C83.8496,21.3026 83.8951,21.3599 83.9261,21.4272 C83.9572,21.4945 83.9727,21.5684 83.9727,21.6489 C83.9727,21.757 83.9476,21.8497 83.8975,21.9269 C83.8473,22.0041 83.7708,22.0723 83.6679,22.1317 C83.6072,22.1647 83.5597,22.2003 83.5254,22.2386 C83.4911,22.2768 83.474,22.3237 83.474,22.3791 C83.474,22.445 83.499,22.4998 83.5492,22.5433 C83.5993,22.5869 83.6527,22.6086 83.7095,22.6086 M84.131,24.4252 L83.3473,23.9483 L83.6244,23.6554 L84.0538,23.6554 C84.158,23.6554 84.2382,23.628 84.2942,23.5733 C84.3503,23.5185 84.3783,23.4555 84.3783,23.3843 C84.3783,23.3012 84.3506,23.2359 84.2952,23.1884 C84.2398,23.1409 84.158,23.1171 84.0498,23.1171 L81.7464,23.1171 C81.6263,23.1171 81.535,23.1402 81.4723,23.1864 C81.4097,23.2326 81.3783,23.2985 81.3783,23.3843 C81.3783,23.4674 81.4067,23.5333 81.4634,23.5822 C81.5201,23.631 81.6039,23.6554 81.7147,23.6554 L83.0248,23.6554 L82.3876,24.2629 C82.3084,24.3381 82.2543,24.3955 82.2253,24.4351 C82.1963,24.4746 82.1818,24.5228 82.1818,24.5795 C82.1818,24.6468 82.2032,24.7029 82.2461,24.7477 C82.2889,24.7926 82.3427,24.815 82.4073,24.815 C82.4865,24.815 82.592,24.7418 82.724,24.5954 L82.9872,24.3084 L83.8579,24.8625 C83.9225,24.9034 83.9717,24.9328 84.0053,24.9506 C84.0389,24.9684 84.0709,24.9773 84.1013,24.9773 C84.187,24.9773 84.2546,24.9539 84.3041,24.907 C84.3536,24.8602 84.3783,24.7985 84.3783,24.722 C84.3783,24.656 84.3605,24.6052 84.3249,24.5696 C84.2893,24.534 84.2246,24.4859 84.131,24.4252" style="fill:#000000;fill-rule:evenodd;"/>
            <path d="M90.8617,14.8221" style="stroke:#000000;stroke-width:0.25;"/>
        </g>
        <!-- Text: Push Stick
 -->
        <g>
            <path d="M134.9211,27.0292 L134.9211,27.5675 L134.0999,27.5675 C133.9824,27.5675 133.8934,27.5952 133.8327,27.6506 C133.772,27.706 133.7417,27.7759 133.7417,27.8603 C133.7417,27.9487 133.7717,28.02 133.8317,28.0741 C133.8917,28.1282 133.9798,28.1552 134.0959,28.1552 L136.332,28.1552 C136.4613,28.1552 136.5537,28.1255 136.6091,28.0661 C136.6645,28.0068 136.6922,27.9125 136.6922,27.7832 L136.6922,27.0292 C136.6922,26.8063 136.6751,26.6347 136.6408,26.5147 C136.6078,26.396 136.553,26.2934 136.4765,26.207 C136.4,26.1206 136.3063,26.0549 136.1955,26.0101 C136.0847,25.9652 135.96,25.9428 135.8215,25.9428 C135.526,25.9428 135.302,26.0338 135.1497,26.2159 C134.9973,26.3979 134.9211,26.6691 134.9211,27.0292 M136.2509,27.1717 L136.2509,27.5675 L135.3644,27.5675 L135.3644,27.1717 C135.3644,27.0332 135.3789,26.9174 135.4079,26.8244 C135.4369,26.7314 135.4844,26.6605 135.5504,26.6117 C135.6163,26.5628 135.7028,26.5384 135.8096,26.5384 C135.9376,26.5384 136.0418,26.576 136.1223,26.6512 C136.208,26.7357 136.2509,26.9092 136.2509,27.1717 M134.0464,24.0871 L134.1157,24.0871 C134.0339,24.1517 133.9653,24.2197 133.9099,24.2909 C133.8545,24.3621 133.8132,24.44 133.7862,24.5244 C133.7592,24.6088 133.7456,24.7051 133.7456,24.8133 C133.7456,24.9439 133.7727,25.061 133.8268,25.1646 C133.8809,25.2681 133.9554,25.3483 134.0504,25.405 C134.1652,25.4723 134.3301,25.5059 134.5451,25.5059 L135.6157,25.5059 C135.7239,25.5059 135.8047,25.4815 135.8581,25.4327 C135.9115,25.3839 135.9382,25.3193 135.9382,25.2388 C135.9382,25.157 135.9112,25.091 135.8571,25.0409 C135.803,24.9908 135.7225,24.9657 135.6157,24.9657 L134.7509,24.9657 C134.6256,24.9657 134.5204,24.9551 134.4353,24.934 C134.3502,24.9129 134.2836,24.875 134.2354,24.8203 C134.1873,24.7655 134.1632,24.6913 134.1632,24.5976 C134.1632,24.5066 134.1902,24.4208 134.2443,24.3404 C134.2984,24.2599 134.369,24.2012 134.4561,24.1642 C134.5326,24.1339 134.7001,24.1187 134.9587,24.1187 L135.6157,24.1187 C135.7225,24.1187 135.803,24.0937 135.8571,24.0435 C135.9112,23.9934 135.9382,23.9281 135.9382,23.8476 C135.9382,23.7672 135.9115,23.7025 135.8581,23.6537 C135.8047,23.6049 135.7239,23.5805 135.6157,23.5805 L134.0504,23.5805 C133.9475,23.5805 133.8703,23.6039 133.8189,23.6507 C133.7674,23.6976 133.7417,23.7579 133.7417,23.8318 C133.7417,23.9057 133.7684,23.9667 133.8218,24.0148 C133.8753,24.063 133.9501,24.0871 134.0464,24.0871 M134.4481,21.3032 C134.2991,21.3032 134.1714,21.3394 134.0652,21.412 C133.959,21.4846 133.8785,21.5918 133.8238,21.7336 C133.7691,21.8754 133.7417,22.0479 133.7417,22.2511 C133.7417,22.445 133.7714,22.6112 133.8307,22.7497 C133.8901,22.8883 133.9643,22.9905 134.0534,23.0565 C134.1424,23.1224 134.2318,23.1554 134.3215,23.1554 C134.3809,23.1554 134.4316,23.1343 134.4739,23.0921 C134.5161,23.0499 134.5372,22.9964 134.5372,22.9318 C134.5372,22.8751 134.5233,22.8315 134.4956,22.8012 C134.4679,22.7708 134.429,22.7418 134.3789,22.7141 C134.2826,22.6587 134.2107,22.5924 134.1632,22.5152 C134.1157,22.4381 134.0919,22.3328 134.0919,22.1996 C134.0919,22.0914 134.116,22.0027 134.1642,21.9334 C134.2123,21.8642 134.2674,21.8296 134.3294,21.8296 C134.4244,21.8296 134.4937,21.8655 134.5372,21.9374 C134.5807,22.0093 134.6223,22.1277 134.6619,22.2926 C134.708,22.4786 134.7565,22.63 134.8073,22.7468 C134.8581,22.8635 134.9251,22.9569 135.0082,23.0268 C135.0913,23.0967 135.1935,23.1317 135.3149,23.1317 C135.4231,23.1317 135.5253,23.0993 135.6216,23.0347 C135.7179,22.9701 135.7948,22.8747 135.8522,22.7487 C135.9096,22.6228 135.9382,22.4707 135.9382,22.2926 C135.9382,22.1528 135.9237,22.0271 135.8947,21.9156 C135.8657,21.8042 135.8268,21.7111 135.778,21.6366 C135.7291,21.5621 135.6751,21.5053 135.6157,21.4664 C135.5563,21.4275 135.4983,21.408 135.4415,21.408 C135.3795,21.408 135.3287,21.4288 135.2892,21.4704 C135.2496,21.5119 135.2298,21.571 135.2298,21.6475 C135.2298,21.7029 135.2456,21.7501 135.2773,21.789 C135.309,21.8279 135.3565,21.8724 135.4198,21.9226 C135.4725,21.9635 135.5148,22.0116 135.5464,22.067 C135.5781,22.1224 135.5939,22.1976 135.5939,22.2926 C135.5939,22.3902 135.5731,22.4714 135.5316,22.536 C135.49,22.6007 135.4382,22.633 135.3762,22.633 C135.3195,22.633 135.273,22.6092 135.2367,22.5617 C135.2004,22.5142 135.1704,22.4503 135.1467,22.3698 C135.1229,22.2893 135.0939,22.1785 135.0596,22.0373 C135.0187,21.8698 134.9699,21.7329 134.9132,21.6267 C134.8565,21.5205 134.7895,21.44 134.7123,21.3853 C134.6351,21.3305 134.5471,21.3032 134.4481,21.3032 M136.4132,20.3182 L135.6117,20.3182 C135.6909,20.2496 135.7535,20.1826 135.7997,20.1173 C135.8459,20.052 135.8805,19.9798 135.9036,19.9006 C135.9267,19.8215 135.9382,19.7364 135.9382,19.6453 C135.9382,19.5081 135.9092,19.3864 135.8512,19.2802 C135.7931,19.174 135.7087,19.0906 135.5979,19.0299 C135.5332,18.9916 135.461,18.9659 135.3812,18.9527 C135.3014,18.9395 135.2094,18.9329 135.1051,18.9329 L134.0702,18.9329 C133.962,18.9329 133.8802,18.9577 133.8248,19.0071 C133.7694,19.0566 133.7417,19.1222 133.7417,19.204 C133.7417,19.3821 133.8512,19.4712 134.0702,19.4712 L134.9824,19.4712 C135.1553,19.4712 135.2882,19.4969 135.3812,19.5484 C135.4742,19.5998 135.5207,19.6974 135.5207,19.8412 C135.5207,19.9375 135.4933,20.0243 135.4386,20.1015 C135.3838,20.1786 135.309,20.2364 135.214,20.2746 C135.1335,20.3036 134.9904,20.3182 134.7846,20.3182 L134.0702,20.3182 C133.9633,20.3182 133.8818,20.3422 133.8258,20.3904 C133.7697,20.4385 133.7417,20.5055 133.7417,20.5912 C133.7417,20.7693 133.8512,20.8584 134.0702,20.8584 L136.4132,20.8584 C136.5227,20.8584 136.6048,20.835 136.6596,20.7881 C136.7143,20.7413 136.7417,20.6757 136.7417,20.5912 C136.7417,20.5055 136.714,20.4385 136.6586,20.3904 C136.6032,20.3422 136.5214,20.3182 136.4132,20.3182 M134.6619,15.1437 C134.4864,15.1437 134.3287,15.1889 134.1889,15.2793 C134.0491,15.3697 133.9396,15.5019 133.8604,15.6761 C133.7813,15.8502 133.7417,16.0567 133.7417,16.2955 C133.7417,16.5817 133.7958,16.8179 133.9039,17.0039 C133.9818,17.1358 134.0857,17.243 134.2156,17.3255 C134.3456,17.4079 134.4719,17.4492 134.5946,17.4492 C134.6658,17.4492 134.7268,17.4244 134.7776,17.3749 C134.8284,17.3255 134.8538,17.2625 134.8538,17.186 C134.8538,17.124 134.834,17.0715 134.7944,17.0286 C134.7549,16.9858 134.6962,16.9492 134.6183,16.9188 C134.526,16.8819 134.4488,16.842 134.3868,16.7991 C134.3248,16.7562 134.2737,16.6959 134.2334,16.618 C134.1932,16.5402 134.1731,16.4379 134.1731,16.3113 C134.1731,16.1372 134.2136,15.9957 134.2948,15.8868 C134.3759,15.778 134.4772,15.7236 134.5985,15.7236 C134.6948,15.7236 134.773,15.7529 134.833,15.8116 C134.8931,15.8703 134.9389,15.9462 134.9706,16.0392 C135.0022,16.1322 135.0359,16.2565 135.0715,16.4122 C135.1203,16.6207 135.1774,16.7951 135.2427,16.9356 C135.308,17.0761 135.397,17.1876 135.5098,17.2701 C135.6226,17.3525 135.7628,17.3937 135.9303,17.3937 C136.09,17.3937 136.2318,17.3502 136.3558,17.2631 C136.4798,17.1761 136.5751,17.0501 136.6417,16.8852 C136.7084,16.7203 136.7417,16.5263 136.7417,16.3034 C136.7417,16.1253 136.7196,15.9713 136.6754,15.8413 C136.6312,15.7114 136.5725,15.6035 136.4993,15.5178 C136.426,15.432 136.3492,15.3693 136.2687,15.3298 C136.1882,15.2902 136.1097,15.2704 136.0332,15.2704 C135.9633,15.2704 135.9003,15.2951 135.8442,15.3446 C135.7882,15.3941 135.7601,15.4558 135.7601,15.5296 C135.7601,15.5969 135.777,15.648 135.8106,15.683 C135.8442,15.718 135.8993,15.7559 135.9758,15.7968 C136.0853,15.8496 136.1708,15.9129 136.2321,15.9868 C136.2935,16.0606 136.3241,16.1794 136.3241,16.343 C136.3241,16.4947 136.2908,16.617 136.2242,16.71 C136.1576,16.803 136.0774,16.8496 135.9838,16.8496 C135.9257,16.8496 135.8756,16.8337 135.8334,16.8021 C135.7911,16.7704 135.7549,16.7269 135.7245,16.6715 C135.6942,16.616 135.6704,16.56 135.6533,16.5032 C135.6361,16.4465 135.6111,16.3528 135.5781,16.2222 C135.5398,16.0587 135.4976,15.9106 135.4514,15.778 C135.4053,15.6454 135.3492,15.5326 135.2832,15.4396 C135.2173,15.3466 135.1338,15.274 135.0329,15.2219 C134.932,15.1698 134.8083,15.1437 134.6619,15.1437 M135.8908,14.6535 L135.8908,14.5941 L136.2153,14.5941 C136.3024,14.5941 136.3706,14.5918 136.4201,14.5872 C136.4696,14.5825 136.5121,14.5697 136.5477,14.5486 C136.5847,14.5275 136.6147,14.4971 136.6378,14.4575 C136.6609,14.418 136.6724,14.3738 136.6724,14.325 C136.6724,14.2564 136.6467,14.1944 136.5952,14.1389 C136.5609,14.102 136.5191,14.0786 136.4696,14.0687 C136.4201,14.0588 136.3499,14.0539 136.2588,14.0539 L135.8908,14.0539 L135.8908,13.856 C135.8908,13.7794 135.8726,13.7211 135.8363,13.6808 C135.8001,13.6406 135.7535,13.6205 135.6968,13.6205 C135.6243,13.6205 135.5735,13.6492 135.5444,13.7066 C135.5154,13.7639 135.5009,13.8461 135.5009,13.9529 L135.5009,14.0539 L134.5075,14.0539 C134.4231,14.0539 134.3581,14.0509 134.3126,14.0449 C134.2671,14.039 134.2301,14.0232 134.2018,13.9975 C134.1734,13.9717 134.1592,13.9298 134.1592,13.8718 C134.1592,13.8401 134.1648,13.7973 134.176,13.7432 C134.1873,13.6891 134.1929,13.6469 134.1929,13.6165 C134.1929,13.573 134.1754,13.5337 134.1404,13.4988 C134.1055,13.4638 134.0623,13.4463 134.0108,13.4463 C133.9237,13.4463 133.8571,13.4938 133.8109,13.5888 C133.7648,13.6838 133.7417,13.8203 133.7417,13.9984 C133.7417,14.1673 133.77,14.2953 133.8268,14.3823 C133.8835,14.4694 133.962,14.5265 134.0623,14.5535 C134.1625,14.5806 134.2964,14.5941 134.464,14.5941 L135.5009,14.5941 L135.5009,14.6653 C135.5009,14.7432 135.5194,14.8025 135.5563,14.8434 C135.5933,14.8843 135.6401,14.9048 135.6968,14.9048 C135.7535,14.9048 135.8001,14.8833 135.8363,14.8405 C135.8726,14.7976 135.8908,14.7353 135.8908,14.6535 M135.6315,12.7086 L134.0702,12.7086 C133.962,12.7086 133.8802,12.7343 133.8248,12.7858 C133.7694,12.8372 133.7417,12.9025 133.7417,12.9817 C133.7417,13.0608 133.77,13.1252 133.8268,13.1746 C133.8835,13.2241 133.9646,13.2488 134.0702,13.2488 L135.6157,13.2488 C135.7225,13.2488 135.803,13.2241 135.8571,13.1746 C135.9112,13.1252 135.9382,13.0608 135.9382,12.9817 C135.9382,12.9025 135.9112,12.8372 135.8571,12.7858 C135.803,12.7343 135.7278,12.7086 135.6315,12.7086 M136.1896,12.9758 C136.1896,13.0509 136.2127,13.1153 136.2588,13.1687 C136.305,13.2221 136.3703,13.2488 136.4547,13.2488 C136.5313,13.2488 136.5942,13.2215 136.6437,13.1667 C136.6932,13.112 136.7179,13.0483 136.7179,12.9758 C136.7179,12.9058 136.6955,12.8438 136.6506,12.7897 C136.6058,12.7356 136.5405,12.7086 136.4547,12.7086 C136.3716,12.7086 136.3066,12.735 136.2598,12.7878 C136.213,12.8405 136.1896,12.9032 136.1896,12.9758 M134.4105,10.2135 C134.3433,10.2135 134.2714,10.2336 134.1948,10.2738 C134.1183,10.3141 134.0454,10.3754 133.9762,10.4578 C133.9069,10.5403 133.8512,10.6442 133.809,10.7695 C133.7667,10.8949 133.7456,11.036 133.7456,11.193 C133.7456,11.5268 133.8429,11.7873 134.0375,11.9747 C134.2321,12.162 134.493,12.2557 134.8202,12.2557 C135.0418,12.2557 135.2377,12.2128 135.4079,12.127 C135.5781,12.0413 135.7097,11.9173 135.8027,11.755 C135.8957,11.5927 135.9422,11.3988 135.9422,11.1732 C135.9422,11.0334 135.9218,10.9051 135.8809,10.7883 C135.84,10.6716 135.7872,10.5726 135.7225,10.4915 C135.6579,10.4104 135.589,10.3484 135.5158,10.3055 C135.4425,10.2626 135.3743,10.2412 135.3109,10.2412 C135.2463,10.2412 135.1915,10.2652 135.1467,10.3134 C135.1018,10.3615 135.0794,10.4199 135.0794,10.4885 C135.0794,10.5334 135.091,10.5706 135.114,10.6003 C135.1371,10.63 135.1744,10.6633 135.2258,10.7003 C135.3261,10.7662 135.4013,10.8352 135.4514,10.9071 C135.5016,10.979 135.5266,11.0703 135.5266,11.1811 C135.5266,11.3408 135.4643,11.4694 135.3396,11.567 C135.215,11.6646 135.0444,11.7135 134.8281,11.7135 C134.7265,11.7135 134.6332,11.7009 134.5481,11.6759 C134.463,11.6508 134.3904,11.6145 134.3304,11.567 C134.2704,11.5195 134.2249,11.4621 134.1939,11.3949 C134.1628,11.3276 134.1473,11.2537 134.1473,11.1732 C134.1473,11.065 134.1724,10.9724 134.2225,10.8952 C134.2727,10.818 134.3492,10.7497 134.4521,10.6904 C134.5128,10.6574 134.5603,10.6218 134.5946,10.5835 C134.6289,10.5453 134.646,10.4984 134.646,10.443 C134.646,10.377 134.621,10.3223 134.5708,10.2788 C134.5207,10.2352 134.4673,10.2135 134.4105,10.2135 M133.989,8.3969 L134.7727,8.8738 L134.4956,9.1667 L134.0662,9.1667 C133.962,9.1667 133.8818,9.1941 133.8258,9.2488 C133.7697,9.3036 133.7417,9.3666 133.7417,9.4378 C133.7417,9.5209 133.7694,9.5862 133.8248,9.6337 C133.8802,9.6812 133.962,9.705 134.0702,9.705 L136.3736,9.705 C136.4937,9.705 136.585,9.6819 136.6477,9.6357 C136.7103,9.5895 136.7417,9.5236 136.7417,9.4378 C136.7417,9.3547 136.7133,9.2887 136.6566,9.2399 C136.5999,9.1911 136.5161,9.1667 136.4053,9.1667 L135.0952,9.1667 L135.7324,8.5592 C135.8116,8.484 135.8657,8.4266 135.8947,8.387 C135.9237,8.3474 135.9382,8.2993 135.9382,8.2426 C135.9382,8.1753 135.9168,8.1192 135.8739,8.0744 C135.8311,8.0295 135.7773,8.0071 135.7127,8.0071 C135.6335,8.0071 135.528,8.0803 135.396,8.2267 L135.1328,8.5137 L134.2621,7.9596 C134.1975,7.9187 134.1483,7.8893 134.1147,7.8715 C134.0811,7.8537 134.0491,7.8448 134.0187,7.8448 C133.933,7.8448 133.8654,7.8682 133.8159,7.9151 C133.7664,7.9619 133.7417,8.0236 133.7417,8.1001 C133.7417,8.166 133.7595,8.2168 133.7951,8.2525 C133.8307,8.2881 133.8954,8.3362 133.989,8.3969" style="fill:#000000;fill-rule:evenodd;"/>
            <path d="M127.2583,18" style="stroke:#000000;stroke-width:0.25;"/>
        </g>
        <!-- Line -->
        <path d="M58.5,10 L61.5,10 " style="stroke:#ff0000;stroke-width:0.25;"/>
        <!-- Line -->
        <path d="M124.5,10 L126.5,10 " style="stroke:#ff0000;stroke-width:0.25;"/>
        <!-- Line -->
        <path d="M61.5,10 L61.5,25 " style="stroke:#ff0000;stroke-width:0.25;"/>
        <!-- Line -->
        <path d="M126.5,25 L126.5,30 " style="stroke:#ff0000;stroke-width:0.25;"/>
        <!-- Line -->
        <path d="M61.5,25 L58.5,25 " style="stroke:#ff0000;stroke-width:0.25;"/>
        <!-- Line -->
        <path d="M126.5,25 L124.5,25 " style="stroke:#ff0000;stroke-width:0.25;"/>
        <!-- Line -->
        <path d="M58.5,25 L58.5,10 " style="stroke:#ff0000;stroke-width:0.25;"/>
        <!-- Line -->
        <path d="M123.5,24 L123.5,11 " style="stroke:#ff0000;stroke-width:0.25;"/>
        <!-- Line -->
        <path d="M141.5,3 L141.5,28 " style="stroke:#ff0000;stroke-width:0.25;"/>
        <!-- Line -->
        <path d="M139.5,30 L126.5,30 " style="stroke:#ff0000;stroke-width:0.25;"/>
        <!-- Line -->
        <path d="M126.5,10 L126.5,7 " style="stroke:#ff0000;stroke-width:0.25;"/>
        <!-- Line -->
        <path d="M141.5,3 L135,3 " style="stroke:#ff0000;stroke-width:0.25;"/>
        <!-- Line -->
        <path d="M134,4 L134,6 " style="stroke:#ff0000;stroke-width:0.25;"/>
        <!-- Line -->
        <path d="M134,6 L127.5,6 " style="stroke:#ff0000;stroke-width:0.25;"/>
        <!-- Arc -->
        <path d="M124.5,10 A1,1 0 0,0 123.5,11 " style="stroke:#ff0000;stroke-width:0.25;"/>
        <!-- Arc -->
        <path d="M126.5,7 A1,1 0 0,1 127.5,6 " style="stroke:#ff0000;stroke-width:0.25;"/>
        <!-- Arc -->
        <path d="M134,4 A1,1 0 0,1 135,3 " style="stroke:#ff0000;stroke-width:0.25;"/>
        <!-- Arc -->
        <path d="M123.5,24 A1,1 0 0,0 124.5,25 " style="stroke:#ff0000;stroke-width:0.25;"/>
        <!-- Line -->
        <path d="M-0.3144,-17.6832 L9.6856,-17.6832 " style="stroke:#ff0000;stroke-width:0.25;"/>
        <!-- Line -->
        <path d="M119.6856,-17.6832 L119.6856,-4.6832 " style="stroke:#ff0000;stroke-width:0.25;"/>
        <!-- Line -->
        <path d="M58.1856,-2.6832 L1.6856,-2.6832 " style="stroke:#ff0000;stroke-width:0.25;"/>
        <!-- Line -->
        <path d="M-0.3144,-4.6832 L-0.3144,-17.6832 " style="stroke:#ff0000;stroke-width:0.25;"/>
        <!-- Line -->
        <path d="M58.1856,-10.1832 L61.1856,-10.1832 " style="stroke:#ff0000;stroke-width:0.25;"/>
        <!-- Line -->
        <path d="M61.1856,-10.1832 L61.1856,-2.6832 " style="stroke:#ff0000;stroke-width:0.25;"/>
        <!-- Line -->
        <path d="M117.6856,-2.6832 L61.1856,-2.6832 " style="stroke:#ff0000;stroke-width:0.25;"/>
        <!-- Line -->
        <path d="M58.1856,-2.6832 L58.1856,-10.1832 " style="stroke:#ff0000;stroke-width:0.25;"/>
        <!-- Line -->
        <path d="M10.6856,-20.6832 L23.6856,-20.6832 " style="stroke:#ff0000;stroke-width:0.25;"/>
        <!-- Line -->
        <path d="M24.6856,-19.6832 L24.6856,-17.6832 " style="stroke:#ff0000;stroke-width:0.25;"/>
        <!-- Line -->
        <path d="M24.6856,-17.6832 L52.1856,-17.6832 " style="stroke:#ff0000;stroke-width:0.25;"/>
        <!-- Line -->
        <path d="M9.6856,-17.6832 L9.6856,-19.6832 " style="stroke:#ff0000;stroke-width:0.25;"/>
        <!-- Line -->
        <path d="M53.1856,-20.6832 L66.1856,-20.6832 " style="stroke:#ff0000;stroke-width:0.25;"/>
        <!-- Line -->
        <path d="M67.1856,-19.6832 L67.1856,-17.6832 " style="stroke:#ff0000;stroke-width:0.25;"/>
        <!-- Line -->
        <path d="M67.1856,-17.6832 L94.6856,-17.6832 " style="stroke:#ff0000;stroke-width:0.25;"/>
        <!-- Line -->
        <path d="M52.1856,-17.6832 L52.1856,-19.6832 " style="stroke:#ff0000;stroke-width:0.25;"/>
        <!-- Line -->
        <path d="M95.6856,-20.6832 L108.6856,-20.6832 " style="stroke:#ff0000;stroke-width:0.25;"/>
        <!-- Line -->
        <path d="M109.6856,-19.6832 L109.6856,-17.6832 " style="stroke:#ff0000;stroke-width:0.25;"/>
        <!-- Line -->
        <path d="M109.6856,-17.6832 L119.6856,-17.6832 " style="stroke:#ff0000;stroke-width:0.25;"/>
        <!-- Line -->
        <path d="M94.6856,-17.6832 L94.6856,-19.6832 " style="stroke:#ff0000;stroke-width:0.25;"/>
        <!-- Arc -->
        <path d="M9.6856,-19.6832 A1,1 0 0,1 10.6856,-20.6832 " style="stroke:#ff0000;stroke-width:0.25;"/>
        <!-- Arc -->
        <path d="M24.6856,-19.6832 A1,1 0 0,0 23.6856,-20.6832 " style="stroke:#ff0000;stroke-width:0.25;"/>
        <!-- Arc -->
        <path d="M52.1856,-19.6832 A1,1 0 0,1 53.1856,-20.6832 " style="stroke:#ff0000;stroke-width:0.25;"/>
        <!-- Arc -->
        <path d="M67.1856,-19.6832 A1,1 0 0,0 66.1856,-20.6832 " style="stroke:#ff0000;stroke-width:0.25;"/>
        <!-- Arc -->
        <path d="M94.6856,-19.6832 A1,1 0 0,1 95.6856,-20.6832 " style="stroke:#ff0000;stroke-width:0.25;"/>
        <!-- Arc -->
        <path d="M109.6856,-19.6832 A1,1 0 0,0 108.6856,-20.6832 " style="stroke:#ff0000;stroke-width:0.25;"/>
        <!-- Text: Push Stick
 -->
        <g>
            <path d="M75.6564,-9.9129 L75.1181,-9.9129 L75.1181,-10.7341 C75.1181,-10.8515 75.0904,-10.9406 75.035,-11.0012 C74.9796,-11.0619 74.9097,-11.0923 74.8253,-11.0923 C74.7369,-11.0923 74.6656,-11.0623 74.6115,-11.0022 C74.5574,-10.9422 74.5304,-10.8541 74.5304,-10.7381 L74.5304,-8.5019 C74.5304,-8.3726 74.5601,-8.2803 74.6195,-8.2249 C74.6788,-8.1695 74.7731,-8.1417 74.9024,-8.1417 L75.6564,-8.1417 C75.8793,-8.1417 76.0509,-8.1589 76.1709,-8.1932 C76.2896,-8.2262 76.3922,-8.2809 76.4786,-8.3574 C76.565,-8.434 76.6307,-8.5276 76.6755,-8.6385 C76.7204,-8.7493 76.7428,-8.8739 76.7428,-9.0125 C76.7428,-9.308 76.6518,-9.5319 76.4697,-9.6843 C76.2877,-9.8367 76.0165,-9.9129 75.6564,-9.9129 M75.5139,-8.583 L75.1181,-8.583 L75.1181,-9.4696 L75.5139,-9.4696 C75.6524,-9.4696 75.7682,-9.4551 75.8612,-9.426 C75.9542,-9.397 76.0251,-9.3495 76.0739,-9.2836 C76.1228,-9.2176 76.1472,-9.1312 76.1472,-9.0243 C76.1472,-8.8964 76.1096,-8.7921 76.0344,-8.7117 C75.9499,-8.6259 75.7764,-8.583 75.5139,-8.583 M78.5985,-10.7875 L78.5985,-10.7183 C78.5339,-10.8001 78.4659,-10.8687 78.3947,-10.9241 C78.3235,-10.9795 78.2456,-11.0207 78.1612,-11.0478 C78.0768,-11.0748 77.9805,-11.0883 77.8723,-11.0883 C77.7417,-11.0883 77.6246,-11.0613 77.521,-11.0072 C77.4175,-10.9531 77.3373,-10.8786 77.2806,-10.7836 C77.2133,-10.6688 77.1797,-10.5039 77.1797,-10.2888 L77.1797,-9.2183 C77.1797,-9.1101 77.2041,-9.0293 77.2529,-8.9759 C77.3017,-8.9224 77.3663,-8.8957 77.4468,-8.8957 C77.5286,-8.8957 77.5946,-8.9228 77.6447,-8.9768 C77.6948,-9.0309 77.7199,-9.1114 77.7199,-9.2183 L77.7199,-10.083 C77.7199,-10.2084 77.7305,-10.3136 77.7516,-10.3987 C77.7727,-10.4838 77.8106,-10.5504 77.8653,-10.5985 C77.9201,-10.6467 77.9943,-10.6708 78.088,-10.6708 C78.179,-10.6708 78.2648,-10.6437 78.3452,-10.5896 C78.4257,-10.5355 78.4844,-10.465 78.5214,-10.3779 C78.5517,-10.3014 78.5669,-10.1338 78.5669,-9.8753 L78.5669,-9.2183 C78.5669,-9.1114 78.5919,-9.0309 78.6421,-8.9768 C78.6922,-8.9228 78.7575,-8.8957 78.838,-8.8957 C78.9184,-8.8957 78.9831,-8.9224 79.0319,-8.9759 C79.0807,-9.0293 79.1051,-9.1101 79.1051,-9.2183 L79.1051,-10.7836 C79.1051,-10.8865 79.0817,-10.9636 79.0349,-11.0151 C78.988,-11.0666 78.9277,-11.0923 78.8538,-11.0923 C78.7799,-11.0923 78.7189,-11.0656 78.6708,-11.0121 C78.6226,-10.9587 78.5985,-10.8838 78.5985,-10.7875 M81.3824,-10.3858 C81.3824,-10.5349 81.3462,-10.6625 81.2736,-10.7687 C81.201,-10.8749 81.0938,-10.9554 80.952,-11.0102 C80.8102,-11.0649 80.6377,-11.0923 80.4345,-11.0923 C80.2406,-11.0923 80.0744,-11.0626 79.9359,-11.0032 C79.7973,-10.9439 79.6951,-10.8697 79.6291,-10.7806 C79.5632,-10.6916 79.5302,-10.6022 79.5302,-10.5125 C79.5302,-10.4531 79.5513,-10.4023 79.5935,-10.3601 C79.6357,-10.3179 79.6892,-10.2968 79.7538,-10.2968 C79.8105,-10.2968 79.8541,-10.3106 79.8844,-10.3383 C79.9148,-10.366 79.9438,-10.4049 79.9715,-10.4551 C80.0269,-10.5514 80.0932,-10.6233 80.1704,-10.6708 C80.2475,-10.7183 80.3528,-10.742 80.486,-10.742 C80.5942,-10.742 80.6829,-10.7179 80.7522,-10.6698 C80.8214,-10.6216 80.856,-10.5666 80.856,-10.5045 C80.856,-10.4096 80.8201,-10.3403 80.7482,-10.2968 C80.6763,-10.2532 80.5579,-10.2117 80.393,-10.1721 C80.207,-10.1259 80.0556,-10.0774 79.9388,-10.0266 C79.8221,-9.9759 79.7287,-9.9089 79.6588,-9.8258 C79.5889,-9.7427 79.5539,-9.6404 79.5539,-9.5191 C79.5539,-9.4109 79.5863,-9.3086 79.6509,-9.2123 C79.7155,-9.116 79.8109,-9.0392 79.9369,-8.9818 C80.0628,-8.9244 80.2149,-8.8957 80.393,-8.8957 C80.5328,-8.8957 80.6585,-8.9102 80.77,-8.9392 C80.8814,-8.9683 80.9745,-9.0072 81.049,-9.056 C81.1235,-9.1048 81.1803,-9.1589 81.2192,-9.2183 C81.2581,-9.2776 81.2776,-9.3357 81.2776,-9.3924 C81.2776,-9.4544 81.2568,-9.5052 81.2152,-9.5448 C81.1737,-9.5844 81.1146,-9.6041 81.0381,-9.6041 C80.9827,-9.6041 80.9355,-9.5883 80.8966,-9.5567 C80.8577,-9.525 80.8132,-9.4775 80.763,-9.4142 C80.7221,-9.3614 80.674,-9.3192 80.6186,-9.2875 C80.5632,-9.2559 80.488,-9.24 80.393,-9.24 C80.2954,-9.24 80.2142,-9.2608 80.1496,-9.3024 C80.0849,-9.3439 80.0526,-9.3957 80.0526,-9.4577 C80.0526,-9.5144 80.0764,-9.5609 80.1239,-9.5972 C80.1714,-9.6335 80.2353,-9.6635 80.3158,-9.6873 C80.3963,-9.711 80.5071,-9.74 80.6483,-9.7743 C80.8158,-9.8152 80.9527,-9.864 81.0589,-9.9208 C81.1651,-9.9775 81.2456,-10.0445 81.3003,-10.1216 C81.3551,-10.1988 81.3824,-10.2869 81.3824,-10.3858 M82.3674,-8.4208 L82.3674,-9.2222 C82.436,-9.1431 82.503,-9.0804 82.5683,-9.0342 C82.6336,-8.9881 82.7058,-8.9534 82.785,-8.9303 C82.8641,-8.9073 82.9492,-8.8957 83.0403,-8.8957 C83.1775,-8.8957 83.2992,-8.9247 83.4054,-8.9828 C83.5116,-9.0408 83.595,-9.1253 83.6557,-9.2361 C83.694,-9.3007 83.7197,-9.3729 83.7329,-9.4528 C83.7461,-9.5326 83.7527,-9.6246 83.7527,-9.7288 L83.7527,-10.7638 C83.7527,-10.872 83.7279,-10.9538 83.6785,-11.0092 C83.629,-11.0646 83.5634,-11.0923 83.4816,-11.0923 C83.3035,-11.0923 83.2144,-10.9828 83.2144,-10.7638 L83.2144,-9.8515 C83.2144,-9.6787 83.1887,-9.5458 83.1372,-9.4528 C83.0858,-9.3598 82.9882,-9.3133 82.8444,-9.3133 C82.7481,-9.3133 82.6613,-9.3406 82.5841,-9.3954 C82.507,-9.4501 82.4492,-9.525 82.411,-9.62 C82.382,-9.7005 82.3674,-9.8436 82.3674,-10.0494 L82.3674,-10.7638 C82.3674,-10.8706 82.3434,-10.9521 82.2952,-11.0082 C82.2471,-11.0642 82.1801,-11.0923 82.0944,-11.0923 C81.9163,-11.0923 81.8272,-10.9828 81.8272,-10.7638 L81.8272,-8.4208 C81.8272,-8.3113 81.8506,-8.2291 81.8975,-8.1744 C81.9443,-8.1197 82.0099,-8.0923 82.0944,-8.0923 C82.1801,-8.0923 82.2471,-8.12 82.2952,-8.1754 C82.3434,-8.2308 82.3674,-8.3126 82.3674,-8.4208 M87.5419,-10.1721 C87.5419,-10.3476 87.4967,-10.5052 87.4063,-10.645 C87.3159,-10.7849 87.1837,-10.8944 87.0095,-10.9735 C86.8354,-11.0527 86.6289,-11.0923 86.3901,-11.0923 C86.1039,-11.0923 85.8677,-11.0382 85.6817,-10.93 C85.5498,-10.8522 85.4426,-10.7483 85.3601,-10.6183 C85.2777,-10.4884 85.2364,-10.3621 85.2364,-10.2394 C85.2364,-10.1681 85.2612,-10.1071 85.3107,-10.0563 C85.3601,-10.0055 85.4231,-9.9801 85.4996,-9.9801 C85.5616,-9.9801 85.6141,-9.9999 85.657,-10.0395 C85.6998,-10.0791 85.7364,-10.1378 85.7668,-10.2156 C85.8037,-10.308 85.8436,-10.3852 85.8865,-10.4472 C85.9294,-10.5092 85.9897,-10.5603 86.0676,-10.6005 C86.1454,-10.6408 86.2477,-10.6609 86.3743,-10.6609 C86.5484,-10.6609 86.6899,-10.6203 86.7988,-10.5392 C86.9076,-10.458 86.962,-10.3568 86.962,-10.2354 C86.962,-10.1391 86.9327,-10.0609 86.874,-10.0009 C86.8153,-9.9409 86.7394,-9.895 86.6464,-9.8634 C86.5534,-9.8317 86.4291,-9.7981 86.2734,-9.7625 C86.0649,-9.7136 85.8905,-9.6566 85.75,-9.5913 C85.6095,-9.526 85.498,-9.4369 85.4155,-9.3241 C85.3331,-9.2113 85.2919,-9.0712 85.2919,-8.9036 C85.2919,-8.744 85.3354,-8.6022 85.4225,-8.4782 C85.5095,-8.3541 85.6355,-8.2588 85.8004,-8.1922 C85.9653,-8.1256 86.1593,-8.0923 86.3822,-8.0923 C86.5603,-8.0923 86.7143,-8.1144 86.8443,-8.1586 C86.9742,-8.2028 87.0821,-8.2615 87.1678,-8.3347 C87.2536,-8.4079 87.3163,-8.4848 87.3558,-8.5652 C87.3954,-8.6457 87.4152,-8.7242 87.4152,-8.8007 C87.4152,-8.8706 87.3905,-8.9336 87.341,-8.9897 C87.2915,-9.0458 87.2298,-9.0738 87.156,-9.0738 C87.0887,-9.0738 87.0376,-9.057 87.0026,-9.0233 C86.9676,-8.9897 86.9297,-8.9346 86.8888,-8.8581 C86.836,-8.7486 86.7727,-8.6632 86.6988,-8.6018 C86.625,-8.5405 86.5062,-8.5098 86.3426,-8.5098 C86.1909,-8.5098 86.0686,-8.5431 85.9756,-8.6098 C85.8826,-8.6764 85.836,-8.7565 85.836,-8.8502 C85.836,-8.9082 85.8519,-8.9584 85.8835,-9.0006 C85.9152,-9.0428 85.9587,-9.0791 86.0141,-9.1094 C86.0696,-9.1398 86.1256,-9.1635 86.1824,-9.1807 C86.2391,-9.1978 86.3328,-9.2229 86.4634,-9.2559 C86.6269,-9.2941 86.775,-9.3363 86.9076,-9.3825 C87.0402,-9.4287 87.153,-9.4848 87.246,-9.5507 C87.339,-9.6167 87.4116,-9.7001 87.4637,-9.801 C87.5158,-9.902 87.5419,-10.0257 87.5419,-10.1721 M88.0321,-8.9432 L88.0915,-8.9432 L88.0915,-8.6187 C88.0915,-8.5316 88.0938,-8.4633 88.0984,-8.4138 C88.1031,-8.3644 88.1159,-8.3218 88.137,-8.2862 C88.1581,-8.2493 88.1885,-8.2193 88.2281,-8.1962 C88.2676,-8.1731 88.3118,-8.1615 88.3606,-8.1615 C88.4292,-8.1615 88.4912,-8.1873 88.5467,-8.2387 C88.5836,-8.273 88.607,-8.3149 88.6169,-8.3644 C88.6268,-8.4138 88.6317,-8.4841 88.6317,-8.5751 L88.6317,-8.9432 L88.8296,-8.9432 C88.9062,-8.9432 88.9645,-8.9613 89.0048,-8.9976 C89.045,-9.0339 89.0651,-9.0804 89.0651,-9.1371 C89.0651,-9.2097 89.0364,-9.2605 88.979,-9.2895 C88.9217,-9.3185 88.8395,-9.333 88.7327,-9.333 L88.6317,-9.333 L88.6317,-10.3264 C88.6317,-10.4109 88.6347,-10.4759 88.6407,-10.5214 C88.6466,-10.5669 88.6624,-10.6038 88.6881,-10.6322 C88.7139,-10.6605 88.7558,-10.6747 88.8138,-10.6747 C88.8455,-10.6747 88.8883,-10.6691 88.9424,-10.6579 C88.9965,-10.6467 89.0387,-10.6411 89.0691,-10.6411 C89.1126,-10.6411 89.1519,-10.6586 89.1868,-10.6935 C89.2218,-10.7285 89.2393,-10.7717 89.2393,-10.8231 C89.2393,-10.9102 89.1918,-10.9768 89.0968,-11.023 C89.0018,-11.0692 88.8653,-11.0923 88.6872,-11.0923 C88.5183,-11.0923 88.3903,-11.0639 88.3033,-11.0072 C88.2162,-10.9505 88.1591,-10.872 88.1321,-10.7717 C88.105,-10.6714 88.0915,-10.5375 88.0915,-10.37 L88.0915,-9.333 L88.0203,-9.333 C87.9424,-9.333 87.8831,-9.3146 87.8422,-9.2776 C87.8013,-9.2407 87.7808,-9.1939 87.7808,-9.1371 C87.7808,-9.0804 87.8023,-9.0339 87.8451,-8.9976 C87.888,-8.9613 87.9503,-8.9432 88.0321,-8.9432 M89.977,-9.2024 L89.977,-10.7638 C89.977,-10.872 89.9513,-10.9538 89.8998,-11.0092 C89.8484,-11.0646 89.7831,-11.0923 89.7039,-11.0923 C89.6248,-11.0923 89.5604,-11.0639 89.511,-11.0072 C89.4615,-10.9505 89.4368,-10.8693 89.4368,-10.7638 L89.4368,-9.2183 C89.4368,-9.1114 89.4615,-9.0309 89.511,-8.9768 C89.5604,-8.9228 89.6248,-8.8957 89.7039,-8.8957 C89.7831,-8.8957 89.8484,-8.9228 89.8998,-8.9768 C89.9513,-9.0309 89.977,-9.1061 89.977,-9.2024 M89.7098,-8.6444 C89.6347,-8.6444 89.5703,-8.6213 89.5169,-8.5751 C89.4635,-8.529 89.4368,-8.4636 89.4368,-8.3792 C89.4368,-8.3027 89.4641,-8.2397 89.5189,-8.1902 C89.5736,-8.1408 89.6373,-8.116 89.7098,-8.116 C89.7798,-8.116 89.8418,-8.1385 89.8959,-8.1833 C89.95,-8.2282 89.977,-8.2935 89.977,-8.3792 C89.977,-8.4623 89.9506,-8.5273 89.8978,-8.5741 C89.8451,-8.621 89.7824,-8.6444 89.7098,-8.6444 M92.4721,-10.4234 C92.4721,-10.4907 92.452,-10.5626 92.4118,-10.6391 C92.3715,-10.7156 92.3102,-10.7885 92.2278,-10.8578 C92.1453,-10.927 92.0414,-10.9828 91.9161,-11.025 C91.7907,-11.0672 91.6496,-11.0883 91.4926,-11.0883 C91.1588,-11.0883 90.8983,-10.991 90.7109,-10.7964 C90.5236,-10.6018 90.4299,-10.341 90.4299,-10.0138 C90.4299,-9.7921 90.4728,-9.5962 90.5586,-9.426 C90.6443,-9.2559 90.7683,-9.1243 90.9306,-9.0313 C91.0929,-8.9383 91.2868,-8.8917 91.5124,-8.8917 C91.6522,-8.8917 91.7805,-8.9122 91.8973,-8.9531 C92.014,-8.994 92.113,-9.0468 92.1941,-9.1114 C92.2752,-9.176 92.3372,-9.245 92.3801,-9.3182 C92.423,-9.3914 92.4444,-9.4597 92.4444,-9.523 C92.4444,-9.5877 92.4204,-9.6424 92.3722,-9.6873 C92.3241,-9.7321 92.2657,-9.7545 92.1971,-9.7545 C92.1522,-9.7545 92.115,-9.743 92.0853,-9.7199 C92.0556,-9.6968 92.0223,-9.6596 91.9853,-9.6081 C91.9194,-9.5078 91.8504,-9.4326 91.7785,-9.3825 C91.7066,-9.3324 91.6153,-9.3073 91.5045,-9.3073 C91.3448,-9.3073 91.2162,-9.3697 91.1186,-9.4943 C91.021,-9.619 90.9721,-9.7895 90.9721,-10.0059 C90.9721,-10.1074 90.9847,-10.2008 91.0097,-10.2859 C91.0348,-10.371 91.0711,-10.4435 91.1186,-10.5036 C91.1661,-10.5636 91.2235,-10.6091 91.2907,-10.6401 C91.358,-10.6711 91.4319,-10.6866 91.5124,-10.6866 C91.6206,-10.6866 91.7132,-10.6615 91.7904,-10.6114 C91.8676,-10.5613 91.9359,-10.4848 91.9952,-10.3819 C92.0282,-10.3212 92.0638,-10.2737 92.1021,-10.2394 C92.1403,-10.2051 92.1872,-10.1879 92.2426,-10.1879 C92.3086,-10.1879 92.3633,-10.213 92.4068,-10.2631 C92.4504,-10.3133 92.4721,-10.3667 92.4721,-10.4234 M94.2887,-10.8449 L93.8118,-10.0613 L93.5189,-10.3383 L93.5189,-10.7677 C93.5189,-10.872 93.4915,-10.9521 93.4368,-11.0082 C93.382,-11.0642 93.319,-11.0923 93.2478,-11.0923 C93.1647,-11.0923 93.0994,-11.0646 93.0519,-11.0092 C93.0044,-10.9538 92.9806,-10.872 92.9806,-10.7638 L92.9806,-8.4604 C92.9806,-8.3403 93.0037,-8.2489 93.0499,-8.1863 C93.0961,-8.1236 93.162,-8.0923 93.2478,-8.0923 C93.3309,-8.0923 93.3969,-8.1206 93.4457,-8.1774 C93.4945,-8.2341 93.5189,-8.3179 93.5189,-8.4287 L93.5189,-9.7387 L94.1264,-9.1015 C94.2016,-9.0224 94.259,-8.9683 94.2986,-8.9392 C94.3382,-8.9102 94.3863,-8.8957 94.443,-8.8957 C94.5103,-8.8957 94.5664,-8.9171 94.6112,-8.96 C94.6561,-9.0029 94.6785,-9.0567 94.6785,-9.1213 C94.6785,-9.2005 94.6053,-9.306 94.4589,-9.4379 L94.1719,-9.7011 L94.726,-10.5718 C94.7669,-10.6365 94.7963,-10.6856 94.8141,-10.7193 C94.8319,-10.7529 94.8408,-10.7849 94.8408,-10.8152 C94.8408,-10.901 94.8174,-10.9686 94.7705,-11.0181 C94.7237,-11.0675 94.662,-11.0923 94.5855,-11.0923 C94.5196,-11.0923 94.4688,-11.0745 94.4331,-11.0388 C94.3975,-11.0032 94.3494,-10.9386 94.2887,-10.8449" style="fill:#000000;fill-rule:evenodd;"/>
            <path d="M84.6856,-17.2741" style="stroke:#000000;stroke-width:0.25;"/>
        </g>
        <!-- Arc -->
        <path d="M139.5,30 A2,2 0 0,0 141.5,28 " style="stroke:#ff0000;stroke-width:0.25;"/>
        <!-- Arc -->
        <path d="M-0.3144,-4.6832 A2,2 0 0,0 1.6856,-2.6832 " style="stroke:#ff0000;stroke-width:0.25;"/>
        <!-- Arc -->
        <path d="M117.6856,-2.6832 A2,2 0 0,0 119.6856,-4.6832 " style="stroke:#ff0000;stroke-width:0.25;"/>
        <!-- Arc -->
        <path d="M120,2 A2,2 0 0,0 118,0 " style="stroke:#ff0000;stroke-width:0.25;"/>
    </g>
</svg>
