<?xml version="1.0" encoding="UTF-8"?>
<!-- 2018-02-05 19:57:28 Generated by QCAD SVG Exporter -->
<svg width="160mm" height="160mm" viewBox="0 -160 160 160" version="1.1" xmlns="http://www.w3.org/2000/svg" style="stroke-linecap:round;stroke-linejoin:round;fill:none">
    <g transform="scale(1,-1)">
        <!-- Line -->
        <path d="M5,0 L155,0 " style="stroke:#ff0000;stroke-width:0.25;"/>
        <!-- Line -->
        <path d="M160,5 L160,155 " style="stroke:#ff0000;stroke-width:0.25;"/>
        <!-- Line -->
        <path d="M155,160 L5,160 " style="stroke:#ff0000;stroke-width:0.25;"/>
        <!-- Line -->
        <path d="M0,155 L0,5 " style="stroke:#ff0000;stroke-width:0.25;"/>
        <!-- Line -->
        <path d="M11,132 L149,132 " style="stroke:#ff0000;stroke-width:0.25;"/>
        <!-- Line -->
        <path d="M152,135 L152,135 " style="stroke:#ff0000;stroke-width:0.25;"/>
        <!-- Line -->
        <path d="M149,138 L11,138 " style="stroke:#ff0000;stroke-width:0.25;"/>
        <!-- Line -->
        <path d="M8,135 L8,135 " style="stroke:#ff0000;stroke-width:0.25;"/>
        <!-- Line -->
        <path d="M11,52 L149,52 " style="stroke:#ff0000;stroke-width:0.25;"/>
        <!-- Line -->
        <path d="M152,55 L152,55 " style="stroke:#ff0000;stroke-width:0.25;"/>
        <!-- Line -->
        <path d="M149,58 L11,58 " style="stroke:#ff0000;stroke-width:0.25;"/>
        <!-- Line -->
        <path d="M8,55 L8,55 " style="stroke:#ff0000;stroke-width:0.25;"/>
        <!-- Arc -->
        <path d="M5,160 A5,5 0 0,1 0,155 " style="stroke:#ff0000;stroke-width:0.25;"/>
        <!-- Arc -->
        <path d="M155,160 A5,5 0 0,0 160,155 " style="stroke:#ff0000;stroke-width:0.25;"/>
        <!-- Arc -->
        <path d="M0,5 A5,5 0 0,1 5,0 " style="stroke:#ff0000;stroke-width:0.25;"/>
        <!-- Arc -->
        <path d="M155,0 A5,5 0 0,1 160,5 " style="stroke:#ff0000;stroke-width:0.25;"/>
        <!-- Arc -->
        <path d="M11,138 A3,3 0 0,1 8,135 " style="stroke:#ff0000;stroke-width:0.25;"/>
        <!-- Arc -->
        <path d="M11,132 A3,3 0 0,0 8,135 " style="stroke:#ff0000;stroke-width:0.25;"/>
        <!-- Arc -->
        <path d="M149,138 A3,3 0 0,0 152,135 " style="stroke:#ff0000;stroke-width:0.25;"/>
        <!-- Arc -->
        <path d="M149,132 A3,3 0 0,1 152,135 " style="stroke:#ff0000;stroke-width:0.25;"/>
        <!-- Arc -->
        <path d="M149,58 A3,3 0 0,0 152,55 " style="stroke:#ff0000;stroke-width:0.25;"/>
        <!-- Arc -->
        <path d="M149,52 A3,3 0 0,1 152,55 " style="stroke:#ff0000;stroke-width:0.25;"/>
        <!-- Arc -->
        <path d="M11,58 A3,3 0 0,1 8,55 " style="stroke:#ff0000;stroke-width:0.25;"/>
        <!-- Arc -->
        <path d="M11,52 A3,3 0 0,0 8,55 " style="stroke:#ff0000;stroke-width:0.25;"/>
    </g>
</svg>
